<svg xmlns="http://www.w3.org/2000/svg" viewBox="0 0 128 128" role="img" aria-label="Generic file icon">
  <defs>
    <linearGradient id="doc-bg" x1="0" x2="0" y1="0" y2="1">
      <stop offset="0%" stop-color="#F9FBFF"/>
      <stop offset="100%" stop-color="#EEF2F7"/>
    </linearGradient>
    <linearGradient id="fold-bg" x1="0" x2="1" y1="0" y2="1">
      <stop offset="0%" stop-color="#E6ECF3"/>
      <stop offset="100%" stop-color="#FFFFFF"/>
    </linearGradient>
    <filter id="soft-shadow" x="-20%" y="-20%" width="140%" height="160%" color-interpolation-filters="sRGB">
      <feDropShadow dx="0" dy="2" stdDeviation="3" flood-color="#000" flood-opacity="0.10"/>
      <feDropShadow dx="0" dy="8" stdDeviation="12" flood-color="#000" flood-opacity="0.06"/>
    </filter>
  </defs>

  <!-- Document base with subtle rounding and stroke -->
  <g filter="url(#soft-shadow)">
    <path d="M32 12h44c3.2 0 6.3 1.3 8.6 3.6l20.8 20.8C108.7 38.7 110 41.8 110 45v60c0 6.6-5.4 12-12 12H32c-6.6 0-12-5.4-12-12V24c0-6.6 5.4-12 12-12z" fill="url(#doc-bg)"/>
    <path d="M32 12h44c3.2 0 6.3 1.3 8.6 3.6l20.8 20.8C108.7 38.7 110 41.8 110 45v60c0 6.6-5.4 12-12 12H32c-6.6 0-12-5.4-12-12V24c0-6.6 5.4-12 12-12z" fill="none" stroke="#D5D9E0" stroke-width="1.5"/>

    <!-- Folded corner overlay -->
    <path d="M80 12c3.2 0 6.3 1.3 8.6 3.6l20.8 20.8C112.7 38.7 114 41.8 114 45h-22c-6.6 0-12-5.4-12-12V12z" fill="url(#fold-bg)"/>
    <path d="M80 12c3.2 0 6.3 1.3 8.6 3.6l20.8 20.8C112.7 38.7 114 41.8 114 45" fill="none" stroke="#D5D9E0" stroke-width="1.25"/>

    <!-- Light top highlight -->
    <path d="M32 12h44c3.2 0 6.3 1.3 8.6 3.6l3.4 3.4H32c-4.4 0-8 3.6-8 8V24c0-6.6 5.4-12 12-12z" fill="#FFFFFF" opacity="0.6"/>

    <!-- Text lines -->
    <g fill="#B8C0CC">
      <rect x="28" y="60" width="72" height="6" rx="3"/>
      <rect x="28" y="74" width="66" height="6" rx="3"/>
      <rect x="28" y="88" width="60" height="6" rx="3"/>
    </g>
    <g fill="#CFD6E0">
      <rect x="28" y="40" width="44" height="10" rx="5"/>
    </g>
  </g>
</svg>